<svg xmlns="http://www.w3.org/2000/svg" viewBox="0 0 300 80" width="100%" height="100%">
  <defs>
    <linearGradient id="bpa-grad" x1="0%" y1="0%" x2="100%" y2="0%">
      <stop offset="0%" stop-color="#E91B62" />
      <stop offset="100%" stop-color="#C2185B" />
    </linearGradient>
  </defs>
  <!-- Geometric Logo Icon -->
  <g transform="translate(10, 10)">
    <!-- Custom BPA Lettering -->
    <path d="M 0,10 H 25 C 33,10 38,14 38,20 C 38,25 34,28 28,29 C 35,30 40,34 40,41 C 40,48 34,52 25,52 H 0 Z M 10,24 V 27 H 22 C 25,27 27,26 27,24 C 27,22 25,21 22,21 H 10 Z M 10,35 V 41 H 23 C 26,41 28,39 28,37 C 28,35 26,34 23,34 H 10 Z" fill="url(#bpa-grad)" />
    <path d="M 50,10 H 75 C 85,10 92,16 92,26 C 92,36 85,42 75,42 H 60 V 52 H 50 Z M 60,20 V 32 H 74 C 79,32 82,29 82,26 C 82,23 79,20 74,20 Z" fill="url(#bpa-grad)" />
    <path d="M 100,52 L 115,10 H 125 L 140,52 H 129 L 120,24 L 111,52 Z M 112,38 H 128" stroke="url(#bpa-grad)" stroke-width="3.5" fill="none" stroke-linejoin="round" stroke-linecap="round" />
  </g>
  <!-- Vertical Divider -->
  <line x1="165" y1="18" x2="165" y2="62" stroke="#E91B62" stroke-width="1.5" opacity="0.5" />
  <!-- Chinese Subtext -->
  <text x="180" y="47" font-family="'Inter', 'Noto Sans TC', sans-serif" font-weight="700" font-size="18" fill="#E91B62" letter-spacing="3">品商匯</text>
  <text x="180" y="62" font-family="'Inter', 'Noto Sans TC', sans-serif" font-weight="400" font-size="10" fill="#E91B62" letter-spacing="1" opacity="0.8">商務交流平台</text>
</svg>
