<svg xmlns="http://www.w3.org/2000/svg" viewBox="0 0 350 80" width="100%" height="100%">
  <defs>
    <linearGradient id="kyimc-grad" x1="0%" y1="0%" x2="100%" y2="100%">
      <stop offset="0%" stop-color="#E91B62" />
      <stop offset="100%" stop-color="#C2185B" />
    </linearGradient>
  </defs>
  <!-- Script Logo Path for "Kyimc" -->
  <g transform="translate(10, 15)">
    <!-- Simulated elegant cursive script of "Kyimc" -->
    <path d="M 10,25 C 10,10 25,5 30,15 C 32,20 28,30 25,38 C 22,46 20,50 25,48 C 30,46 35,32 38,22 C 40,16 41,12 37,12 C 34,12 33,18 35,24 L 42,42 C 43,45 45,46 48,42 C 51,38 55,24 57,18 C 59,12 60,10 58,10 C 56,10 54,16 53,22 L 50,38 C 49,43 51,45 54,41 C 58,37 66,22 69,16 C 71,12 70,10 67,10 C 64,10 62,16 61,24 L 60,38 C 59,42 61,43 64,39 C 68,34 76,20 78,14 C 79,10 78,8 75,8 C 72,8 69,14 68,22 L 67,36 C 66,41 68,43 71,39 C 76,33 84,20 86,16 C 87,13 86,11 83,11 C 80,11 76,18 75,26 C 73,34 72,40 76,38 C 80,36 86,26 90,18" 
          fill="none" stroke="url(#kyimc-grad)" stroke-width="4.5" stroke-linecap="round" stroke-linejoin="round" />
    <!-- Small i dot -->
    <circle cx="58" cy="4" r="3" fill="#E91B62" />
  </g>
  
  <!-- Vertical Divider -->
  <line x1="125" y1="18" x2="125" y2="62" stroke="#E91B62" stroke-width="1.5" opacity="0.5" />
  
  <!-- Chinese branding -->
  <g transform="translate(140, 0)">
    <text x="0" y="38" font-family="'Inter', 'Noto Sans TC', sans-serif" font-weight="700" font-size="18" fill="url(#kyimc-grad)" letter-spacing="2">凱悅整合行銷</text>
    <text x="0" y="58" font-family="'Inter', 'Noto Sans TC', sans-serif" font-weight="400" font-size="9.5" fill="#E91B62" letter-spacing="0.5" opacity="0.8">管理顧問有限公司 | Kyimc</text>
  </g>
</svg>
